<?xml version="1.0" standalone="no"?>
<!DOCTYPE svg PUBLIC "-//W3C//DTD SVG 20010904//EN"
 "http://www.w3.org/TR/2001/REC-SVG-20010904/DTD/svg10.dtd">
<svg version="1.0" xmlns="http://www.w3.org/2000/svg"
 width="210.000000pt" height="210.000000pt" viewBox="0 0 210.000000 210.000000"
 preserveAspectRatio="xMidYMid meet">
<metadata>
Created by potrace 1.15, written by Peter Selinger 2001-2017
</metadata><g><rect x="0" y="0" width="210" height="210" fill="#ffffff" rx="21" />
<g transform="translate(0.000000,210.000000) scale(0.050000,-0.050000)"
fill="#020304" stroke="none">
<path d="M360 3420 l0 -420 420 0 420 0 0 420 0 420 -420 0 -420 0 0 -420z
m720 0 l0 -300 -300 0 -300 0 0 300 0 300 300 0 300 0 0 -300z"/>
<path d="M600 3420 l0 -180 180 0 180 0 0 180 0 180 -180 0 -180 0 0 -180z"/>
<path d="M1320 3780 l0 -60 120 0 120 0 0 60 0 60 -120 0 -120 0 0 -60z"/>
<path d="M2160 3780 l0 -60 -60 0 -60 0 0 -60 0 -60 -180 0 -180 0 0 -120 0
-120 -60 0 -60 0 0 60 0 60 -60 0 -60 0 0 60 0 60 -60 0 -60 0 0 -180 0 -180
60 0 60 0 0 -60 0 -60 -60 0 -60 0 0 -60 0 -60 60 0 60 0 0 -60 0 -60 -60 0
-60 0 0 -60 0 -60 -60 0 -60 0 0 60 0 60 -60 0 -60 0 0 -60 0 -60 60 0 60 0 0
-60 0 -60 -60 0 -60 0 0 -60 0 -60 60 0 60 0 0 -60 0 -60 -60 0 -60 0 0 -60 0
-60 -60 0 -60 0 0 120 0 120 -60 0 -60 0 0 60 0 60 -60 0 -60 0 0 -60 0 -60
60 0 60 0 0 -120 0 -120 -60 0 -60 0 0 60 0 60 -60 0 -60 0 0 60 0 60 -120 0
-120 0 0 -180 0 -180 60 0 60 0 0 120 0 120 60 0 60 0 0 -120 0 -120 120 0
120 0 0 60 0 60 60 0 60 0 0 -120 0 -120 120 0 120 0 0 -60 0 -60 -60 0 -60 0
0 -60 0 -60 -60 0 -60 0 0 60 0 60 -60 0 -60 0 0 60 0 60 -240 0 -240 0 0 -60
0 -60 60 0 60 0 0 -120 0 -120 -60 0 -60 0 0 -60 0 -60 60 0 60 0 0 60 0 60
60 0 60 0 0 60 0 60 120 0 120 0 0 -60 0 -60 -60 0 -60 0 0 -60 0 -60 -60 0
-60 0 0 -60 0 -60 -60 0 -60 0 0 -60 0 -60 120 0 120 0 0 60 0 60 60 0 60 0 0
120 0 120 60 0 60 0 0 -120 0 -120 60 0 60 0 0 -60 0 -60 60 0 60 0 0 60 0 60
-60 0 -60 0 0 60 0 60 180 0 180 0 0 -120 0 -120 -60 0 -60 0 0 -60 0 -60 180
0 180 0 0 -60 0 -60 -120 0 -120 0 0 -120 0 -120 -60 0 -60 0 0 -240 0 -240
60 0 60 0 0 60 0 60 60 0 60 0 0 120 0 120 60 0 60 0 0 -120 0 -120 60 0 60 0
0 -60 0 -60 60 0 60 0 0 60 0 60 -60 0 -60 0 0 120 0 120 60 0 60 0 0 -60 0
-60 60 0 60 0 0 -120 0 -120 60 0 60 0 0 120 0 120 -60 0 -60 0 0 60 0 60 180
0 180 0 0 -60 0 -60 -60 0 -60 0 0 -120 0 -120 300 0 300 0 0 120 0 120 -60 0
-60 0 0 -60 0 -60 -180 0 -180 0 0 60 0 60 60 0 60 0 0 180 0 180 -60 0 -60 0
0 60 0 60 60 0 60 0 0 60 0 60 60 0 60 0 0 -120 0 -120 60 0 60 0 0 -60 0 -60
-60 0 -60 0 0 -60 0 -60 180 0 180 0 0 60 0 60 60 0 60 0 0 -120 0 -120 -60 0
-60 0 0 -60 0 -60 60 0 60 0 0 60 0 60 60 0 60 0 0 60 0 60 120 0 120 0 0 -60
0 -60 -60 0 -60 0 0 -60 0 -60 60 0 60 0 0 60 0 60 60 0 60 0 0 -120 0 -120
60 0 60 0 0 120 0 120 60 0 60 0 0 120 0 120 -60 0 -60 0 0 180 0 180 60 0 60
0 0 60 0 60 -120 0 -120 0 0 180 0 180 60 0 60 0 0 180 0 180 60 0 60 0 0 120
0 120 -120 0 -120 0 0 60 0 60 -120 0 -120 0 0 60 0 60 -120 0 -120 0 0 -60 0
-60 120 0 120 0 0 -60 0 -60 60 0 60 0 0 -120 0 -120 60 0 60 0 0 -120 0 -120
-60 0 -60 0 0 60 0 60 -60 0 -60 0 0 120 0 120 -60 0 -60 0 0 -180 0 -180 -60
0 -60 0 0 -120 0 -120 -120 0 -120 0 0 120 0 120 60 0 60 0 0 60 0 60 60 0 60
0 0 60 0 60 -60 0 -60 0 0 60 0 60 60 0 60 0 0 60 0 60 -60 0 -60 0 0 120 0
120 -60 0 -60 0 0 -60 0 -60 -60 0 -60 0 0 60 0 60 -60 0 -60 0 0 60 0 60 -60
0 -60 0 0 -120 0 -120 -60 0 -60 0 0 60 0 60 -120 0 -120 0 0 60 0 60 -60 0
-60 0 0 -60 0 -60 -180 0 -180 0 0 -120 0 -120 -60 0 -60 0 0 60 0 60 -60 0
-60 0 0 60 0 60 -120 0 -120 0 0 60 0 60 180 0 180 0 0 60 0 60 -60 0 -60 0 0
60 0 60 60 0 60 0 0 60 0 60 60 0 60 0 0 -60 0 -60 60 0 60 0 0 60 0 60 60 0
60 0 0 -120 0 -120 120 0 120 0 0 60 0 60 120 0 120 0 0 -60 0 -60 180 0 180
0 0 -60 0 -60 60 0 60 0 0 60 0 60 60 0 60 0 0 -60 0 -60 180 0 180 0 0 60 0
60 120 0 120 0 0 60 0 60 -180 0 -180 0 0 -60 0 -60 -120 0 -120 0 0 60 0 60
-120 0 -120 0 0 60 0 60 60 0 60 0 0 300 0 300 -180 0 -180 0 0 60 0 60 -60 0
-60 0 0 60 0 60 -120 0 -120 0 0 -60z m240 -120 l0 -60 60 0 60 0 0 -60 0 -60
120 0 120 0 0 -60 0 -60 -60 0 -60 0 0 -120 0 -120 60 0 60 0 0 -60 0 -60 -60
0 -60 0 0 60 0 60 -60 0 -60 0 0 -60 0 -60 -60 0 -60 0 0 120 0 120 -60 0 -60
0 0 -120 0 -120 -60 0 -60 0 0 120 0 120 -60 0 -60 0 0 -120 0 -120 -60 0 -60
0 0 120 0 120 -60 0 -60 0 0 -120 0 -120 -60 0 -60 0 0 60 0 60 -60 0 -60 0 0
-60 0 -60 -60 0 -60 0 0 60 0 60 60 0 60 0 0 60 0 60 120 0 120 0 0 120 0 120
240 0 240 0 0 120 0 120 60 0 60 0 0 -60z m-960 -1320 l0 -60 60 0 60 0 0 -60
0 -60 120 0 120 0 0 120 0 120 180 0 180 0 0 -120 0 -120 60 0 60 0 0 -60 0
-60 -60 0 -60 0 0 -60 0 -60 60 0 60 0 0 -60 0 -60 60 0 60 0 0 120 0 120 60
0 60 0 0 60 0 60 60 0 60 0 0 -60 0 -60 120 0 120 0 0 -60 0 -60 -60 0 -60 0
0 -60 0 -60 -60 0 -60 0 0 -60 0 -60 60 0 60 0 0 -60 0 -60 60 0 60 0 0 -60 0
-60 -60 0 -60 0 0 -120 0 -120 -60 0 -60 0 0 120 0 120 60 0 60 0 0 60 0 60
-60 0 -60 0 0 60 0 60 -60 0 -60 0 0 -60 0 -60 -60 0 -60 0 0 -60 0 -60 -60 0
-60 0 0 -60 0 -60 -120 0 -120 0 0 60 0 60 -60 0 -60 0 0 120 0 120 60 0 60 0
0 60 0 60 -120 0 -120 0 0 -60 0 -60 -120 0 -120 0 0 120 0 120 60 0 60 0 0
60 0 60 -120 0 -120 0 0 -120 0 -120 -60 0 -60 0 0 180 0 180 -120 0 -120 0 0
60 0 60 120 0 120 0 0 60 0 60 60 0 60 0 0 -60z m960 0 l0 -60 -60 0 -60 0 0
60 0 60 60 0 60 0 0 -60z m240 0 l0 -60 -60 0 -60 0 0 60 0 60 60 0 60 0 0
-60z m360 -120 l0 -60 -120 0 -120 0 0 60 0 60 120 0 120 0 0 -60z m-1800
-480 l0 -60 -60 0 -60 0 0 60 0 60 60 0 60 0 0 -60z m2160 0 l0 -60 60 0 60 0
0 -120 0 -120 -60 0 -60 0 0 60 0 60 -60 0 -60 0 0 -60 0 -60 -60 0 -60 0 0
60 0 60 60 0 60 0 0 120 0 120 60 0 60 0 0 -60z m-1560 -240 l0 -60 -60 0 -60
0 0 -60 0 -60 60 0 60 0 0 -60 0 -60 -60 0 -60 0 0 60 0 60 -60 0 -60 0 0 60
0 60 60 0 60 0 0 60 0 60 60 0 60 0 0 -60z m1440 -360 l0 -180 -180 0 -180 0
0 180 0 180 180 0 180 0 0 -180z m-960 0 l0 -60 -60 0 -60 0 0 -60 0 -60 -60
0 -60 0 0 -120 0 -120 -60 0 -60 0 0 120 0 120 -60 0 -60 0 0 -60 0 -60 -60 0
-60 0 0 120 0 120 180 0 180 0 0 60 0 60 120 0 120 0 0 -60z m1320 -60 l0
-120 -60 0 -60 0 0 -60 0 -60 120 0 120 0 0 -120 0 -120 -60 0 -60 0 0 60 0
60 -60 0 -60 0 0 60 0 60 -60 0 -60 0 0 60 0 60 60 0 60 0 0 120 0 120 60 0
60 0 0 -120z m-1200 -180 l0 -60 -60 0 -60 0 0 60 0 60 60 0 60 0 0 -60z
m-840 -120 l0 -60 -60 0 -60 0 0 60 0 60 60 0 60 0 0 -60z"/>
<path d="M2400 3360 l0 -120 60 0 60 0 0 120 0 120 -60 0 -60 0 0 -120z"/>
<path d="M1920 3300 l0 -60 60 0 60 0 0 60 0 60 -60 0 -60 0 0 -60z"/>
<path d="M1920 2220 l0 -60 -60 0 -60 0 0 -120 0 -120 -60 0 -60 0 0 -60 0
-60 60 0 60 0 0 60 0 60 120 0 120 0 0 60 0 60 60 0 60 0 0 60 0 60 -60 0 -60
0 0 60 0 60 -60 0 -60 0 0 -60z m120 -120 l0 -60 -60 0 -60 0 0 60 0 60 60 0
60 0 0 -60z"/>
<path d="M2520 1920 l0 -120 60 0 60 0 0 120 0 120 -60 0 -60 0 0 -120z"/>
<path d="M2160 1620 l0 -180 60 0 60 0 0 180 0 180 -60 0 -60 0 0 -180z"/>
<path d="M3000 1140 l0 -60 60 0 60 0 0 60 0 60 -60 0 -60 0 0 -60z"/>
<path d="M2640 3780 l0 -60 120 0 120 0 0 60 0 60 -120 0 -120 0 0 -60z"/>
<path d="M3000 3420 l0 -420 420 0 420 0 0 420 0 420 -420 0 -420 0 0 -420z
m720 0 l0 -300 -300 0 -300 0 0 300 0 300 300 0 300 0 0 -300z"/>
<path d="M3240 3420 l0 -180 180 0 180 0 0 180 0 180 -180 0 -180 0 0 -180z"/>
<path d="M360 2820 l0 -60 240 0 240 0 0 60 0 60 -240 0 -240 0 0 -60z"/>
<path d="M3720 2760 l0 -120 -120 0 -120 0 0 -60 0 -60 120 0 120 0 0 -60 0
-60 60 0 60 0 0 60 0 60 -60 0 -60 0 0 60 0 60 60 0 60 0 0 120 0 120 -60 0
-60 0 0 -120z"/>
<path d="M360 780 l0 -420 420 0 420 0 0 420 0 420 -420 0 -420 0 0 -420z
m720 0 l0 -300 -300 0 -300 0 0 300 0 300 300 0 300 0 0 -300z"/>
<path d="M600 780 l0 -180 180 0 180 0 0 180 0 180 -180 0 -180 0 0 -180z"/>
</g>
</g></svg>
